<svg id="ayurveda" xmlns="http://www.w3.org/2000/svg" width="424" height="99" viewBox="0 0 424 99">
  <defs>
    <style>
      .cls-1 {
        fill: #0e2207;
      }

      .cls-2 {
        fill: #1f6306;
      }
    </style>
  </defs>
  <path id="Medisat." class="cls-1" d="M408.552,40.074H386.067V75.8a5,5,0,0,0,1.089,3.018,3.021,3.021,0,0,0,2.377,1.464q6.621,0,6.621-13.668l8.932,5.1a22.71,22.71,0,0,1-5.933,8.057q-3.755,3.219-9.887,3.218a10.813,10.813,0,0,1-5.621-1.619,12.183,12.183,0,0,1-4.066-4.039,9.326,9.326,0,0,1-1.511-4.9V40.074h-37.9v7.078a0.424,0.424,0,0,1,.356.177,0.384,0.384,0,0,0,.311.177q-0.09,0,1.844-.537a44.785,44.785,0,0,1,4.421-.962,28.526,28.526,0,0,1,4.8-.425,19.784,19.784,0,0,1,8.4,1.466,9.2,9.2,0,0,1,4.421,4.132,16.175,16.175,0,0,1,1.645,5.976q0.288,3.31.288,9.085V83.79q-2.444-.978-4.4-1.933t-2.71-1.4a2.173,2.173,0,0,0-.534-1.822q-1.465.845-3.288,1.844a20.8,20.8,0,0,1-4.755,1.755,28.221,28.221,0,0,1-6.976.755,20.826,20.826,0,0,1-7.554-1.422,14.734,14.734,0,0,1-5.977-4.065,8.883,8.883,0,0,1-2.288-5.975q0-3.109,2.888-6.509a22.178,22.178,0,0,1,7.732-5.642,24.856,24.856,0,0,1,10.576-2.243,18.864,18.864,0,0,1,5.91.918,14.684,14.684,0,0,1,4.266,2.035v-4.1a10.645,10.645,0,0,0-3.466-3.172,12.3,12.3,0,0,0-5.333-.881,43.333,43.333,0,0,0-7.354.771,36.2,36.2,0,0,0-5.777,1.85q-3.088,1.256-5.176,1.96V53.254c0.206-.176.5-0.426,0.888-0.75A9.091,9.091,0,0,0,334.1,51.8c0.133-.147.214-0.235,0.244-0.265V40.074h-12.22V56.868a27.078,27.078,0,0,0-7.376-2.621,37.251,37.251,0,0,0-8.176-1.111,41.854,41.854,0,0,0-6.688.644,22.983,22.983,0,0,0-6.976,2.266q-3.09,1.622-3.089,4.287a3.953,3.953,0,0,0,.911,2.332,3.288,3.288,0,0,0,2.822,1.222,19.605,19.605,0,0,0,6.065-1.444q3.976-1.443,5.866-2a20.848,20.848,0,0,1,5.532-.555,17.54,17.54,0,0,1,6.51,1.222,11.637,11.637,0,0,1,4.933,3.532,8.306,8.306,0,0,1,1.844,5.331,9.564,9.564,0,0,1-2.622,6.531,18.724,18.724,0,0,1-6.288,4.6,20.213,20.213,0,0,1-7,1.888q3.2,3.2,6.087,3.2a8.272,8.272,0,0,0,2-.267l4.488,7.331a5.858,5.858,0,0,1-1.711.755,13.336,13.336,0,0,1-3.932.444,7.208,7.208,0,0,1-5.6-2.088,31.505,31.505,0,0,1-3.933-5.642q-2.022-3.555-3.31-3.554a51.549,51.549,0,0,1-6.6-.689,16.75,16.75,0,0,1-6.066-2.288,5.343,5.343,0,0,1-2.8-4.754,3.139,3.139,0,0,1,1.355-2.866,5.609,5.609,0,0,1,3.088-.866,7.947,7.947,0,0,1,3.422.622,27.358,27.358,0,0,1,3.177,1.888,16.908,16.908,0,0,0,3.777,1.933,15.728,15.728,0,0,0,5.088.666,30.463,30.463,0,0,0,6.021-.8,24.4,24.4,0,0,0,6.643-2.377q2.889-1.577,2.889-3.843a2.562,2.562,0,0,0-.889-2.021,4.858,4.858,0,0,0-2.044-1.066,9.881,9.881,0,0,0-2.4-.289,13.64,13.64,0,0,0-3.488.489q-1.844.489-7.132,1.91a38.485,38.485,0,0,1-6.487,1.422,13.094,13.094,0,0,1-6.288-1.755,15.334,15.334,0,0,1-5.377-4.909,12.225,12.225,0,0,1-2.2-6.886,8.112,8.112,0,0,1,3.022-6.553,18.085,18.085,0,0,1,7.243-3.576,28.1,28.1,0,0,1,14.242-.289q3.8,0.778,5.8,1.311V40.074H259.424l-0.089,43.361-8.087-3.465V73.617a34.825,34.825,0,0,1-6.812,6.931,12.174,12.174,0,0,1-7.3,2.355q-3.906,0-8.743-3.11a29.4,29.4,0,0,1-8.232-7.952,16.785,16.785,0,0,1-3.4-9.685,13.4,13.4,0,0,1,1.265-4.509,23.526,23.526,0,0,1,3.461-5.465,19.4,19.4,0,0,1,5.526-4.6,14.5,14.5,0,0,1,7.234-1.822,11.981,11.981,0,0,1,7.944,2.787,105.706,105.706,0,0,1,9.053,9.03v-17.5h-48.7v8.708a9.639,9.639,0,0,1,2,.644,6.333,6.333,0,0,1,1.022.555v5.242a33.6,33.6,0,0,0-11.02-1.822A25.852,25.852,0,0,0,186.06,55q-4.578,1.6-4.71,4.976,0,3.555,10.063,3.554,0.843,0,2.882-.111t2.66-.155v4.087q-3.194.09-7.362,0.333a22.8,22.8,0,0,0-7.473,1.621q-3.3,1.378-3.3,4.487,0,2.577,3.044,4.2a14.36,14.36,0,0,0,6.865,1.622,25.643,25.643,0,0,0,13.531-3.532,32.238,32.238,0,0,0,9.842-9.263v11.24a28.115,28.115,0,0,1-9.109,3.91,43.148,43.148,0,0,1-8.976.933,43.557,43.557,0,0,1-10.109-1.355,31.723,31.723,0,0,1-9.643-3.91q-4.022-2.554-4.021-5.931a6.475,6.475,0,0,1,2.6-5.42,32.768,32.768,0,0,1,5.977-3.6Q177.04,61.666,175.862,61a6.111,6.111,0,0,1-1.889-1.6,3.923,3.923,0,0,1-.711-2.443,6.143,6.143,0,0,1,2.373-4.909,16.069,16.069,0,0,1,5.92-3,42.774,42.774,0,0,1,7.229-1.422,64.226,64.226,0,0,1,6.919-.4V40.074H153.8l0.088,6.181q5.911,2.177,8.688,5.753t2.778,10.15a18.722,18.722,0,0,1-2.2,9.017A24.452,24.452,0,0,1,158,77.905a34.032,34.032,0,0,1-5.621,4.175,14.993,14.993,0,0,1-3.021,1.532q-0.667,0-3.666-2.929T140.779,75.8a24.1,24.1,0,0,0,9.269-2.751,29.091,29.091,0,0,0,8.736-6.545,12.521,12.521,0,0,0,3.636-8.5,5.543,5.543,0,0,0-1.371-3.838,8.488,8.488,0,0,0-3.562-2.307,13.986,13.986,0,0,0-4.71-.777q-7.687.444-11.931,4.942a23.488,23.488,0,0,0-5.71,11.768q-0.312-.088-3.688-1.484t-5.421-2.237a11.63,11.63,0,0,1,.866-4.341,25.083,25.083,0,0,1,2-3.988,21.33,21.33,0,0,0,1.133-1.9q0-1.2-2.177-1.64a19.506,19.506,0,0,0-3.822-.443,13.253,13.253,0,0,0-6.865,1.908,14.836,14.836,0,0,0-5.088,4.858,10.992,10.992,0,0,0-1.867,5.923,12.543,12.543,0,0,0,1.822,6.433,30.265,30.265,0,0,0,3.911,5.346q2.088,2.241,5.176,4.969a22.293,22.293,0,0,1,3.266,3.172A57.218,57.218,0,0,1,117.7,81.48a47.745,47.745,0,0,1-7.665-4.82,28.311,28.311,0,0,1-6.333-6.6,13.788,13.788,0,0,1-2.51-7.908,14.345,14.345,0,0,1,2.755-8.641,18.74,18.74,0,0,1,7.087-5.909,20.136,20.136,0,0,1,8.91-2.11,18.631,18.631,0,0,1,6.488,1.052,30.833,30.833,0,0,1,5.221,2.484,16.652,16.652,0,0,0,2.6,1.431q0.043,0,2.444-1.118t4.955-2.058a22.943,22.943,0,0,1,4.332-1.209l0.089-6H99.854V34.7H251.248q0-4.665-.245-7.708a32.315,32.315,0,0,0-1.333-6.664,44.246,44.246,0,0,0-3.577-8.2,86.264,86.264,0,0,0-6.71-10.218c-0.118,0-.178-0.237-0.178-0.711A0.8,0.8,0,0,1,239.472.49h8.487a50.1,50.1,0,0,1,7.843,12.4q3.622,7.73,3.622,21.814H378.068V19.771l8,5.553V34.7h38.571v5.376H408.552Zm-53.59,24.7a26.613,26.613,0,0,0-6.488-1.373,19.066,19.066,0,0,0-8.821,2.037,19.96,19.96,0,0,0-6.243,4.717q-2.267,2.68-2.266,4.407a3.962,3.962,0,0,0,2.777,2.547,15.055,15.055,0,0,0,4.6.686,28.531,28.531,0,0,0,8.421-1.2,29.2,29.2,0,0,0,6.732-2.945,21.754,21.754,0,0,0,4.355-3.345,5.017,5.017,0,0,0,1.511-2.126Q359.539,66.145,354.962,64.772ZM245.915,54.8a11.445,11.445,0,0,0-7.6-2.684q-1.646,0-5.421,1.774a21.4,21.4,0,0,0-6.866,5.233,11.967,11.967,0,0,0-3.088,8.249,10.757,10.757,0,0,0,2.577,7.451,7.708,7.708,0,0,0,5.866,2.883q3.82,0,7.976-3.215a31.175,31.175,0,0,0,6.954-7.428q2.8-4.213,2.8-6.785Q249.115,57.481,245.915,54.8Zm32.616-24.586a3.934,3.934,0,0,1-1.244-.178q-3.2-6.264-4.088-7.641a4.429,4.429,0,0,0-2.466-1.733q-1.489-.4-2.8-0.777a3.565,3.565,0,0,1-2.11-1.755,11.74,11.74,0,0,1-.667-2.066,17.566,17.566,0,0,0-1.911-4.2V10.841h1.733a36.312,36.312,0,0,1,7.377,2.91,7.033,7.033,0,0,1,2.777,2.532,38.16,38.16,0,0,1,1.711,5.02,40.807,40.807,0,0,0,2.622,6.82q0.044,0.4.066,0.733t0.022,1.177A1.73,1.73,0,0,1,278.531,30.212ZM277.11,83.924L269.644,79.8V45.539h7.466V83.924Zm138.862-8.041a10.415,10.415,0,0,1,2.267,1.488q2,1.489,3.288,2.51-0.267.267-2.688,1.866a9.137,9.137,0,0,1-3.044,1.6,10.9,10.9,0,0,1-2.333-1.622q-2.067-1.621-2.378-1.933,0.045,0,2.4-1.955A23.99,23.99,0,0,1,415.972,75.882Z" transform="translate(-0.875)"/>
  <path id="icon" class="cls-2" d="M84.918,40.851A169.367,169.367,0,0,0,82.7,16.286a7.692,7.692,0,0,0-4.014-3.619C67.147,8.193,55.8,3.922,44.739.278a5.47,5.47,0,0,0-3.462,0c-11.06,3.634-22.4,7.9-33.941,12.366A7.692,7.692,0,0,0,3.66,15.709C3.723,15.719,1.287,23.324.873,40.13,0.618,56.915,2.708,61.951,2.641,61.957A34.794,34.794,0,0,0,8.929,73.223a81.5,81.5,0,0,0,13.519,13A113.406,113.406,0,0,0,40.564,97.876a5.523,5.523,0,0,0,4.908,0A113.647,113.647,0,0,0,63.593,86.214a81.708,81.708,0,0,0,13.525-13,33.9,33.9,0,0,0,6.517-12.045c-0.042-.01,1.5-6.174,1.283-20.315h0ZM65.543,51.031v0.04a5.861,5.861,0,0,1-1.7,3.538,5.95,5.95,0,0,1-3.569,1.685c-0.939.1-5.89,0.171-9.038,0.223-0.052,3.044-.129,7.974-0.233,8.955a5.861,5.861,0,0,1-1.7,3.538A5.962,5.962,0,0,1,45.733,70.7h-0.04a22.086,22.086,0,0,1-2.538.146,28.693,28.693,0,0,1-3.046-.146h-0.04A5.962,5.962,0,0,1,36.5,69.01a5.861,5.861,0,0,1-1.7-3.538c-0.1-.981-0.181-5.905-0.233-8.947-3.067-.052-8.019-0.129-9.008-0.231a5.947,5.947,0,0,1-3.577-1.686,5.839,5.839,0,0,1-1.7-3.538v-0.04a21.54,21.54,0,0,1-.148-2.517,27.959,27.959,0,0,1,.148-3.021v-0.04a5.839,5.839,0,0,1,1.7-3.538,5.946,5.946,0,0,1,3.567-1.684c0.99-.1,5.946-0.181,9.015-0.231,0.052-3.127.127-8.055,0.225-8.984a5.861,5.861,0,0,1,1.7-3.538,5.962,5.962,0,0,1,3.569-1.686H40.1a21.9,21.9,0,0,1,3.046-.094,15.217,15.217,0,0,1,2.538.094h0.04a5.963,5.963,0,0,1,3.569,1.686,5.861,5.861,0,0,1,1.7,3.538c0.1,0.931.173,5.863,0.225,8.991,3.156,0.052,8.114.125,9.052,0.223a5.951,5.951,0,0,1,3.569,1.688,5.861,5.861,0,0,1,1.7,3.538v0.04a21.177,21.177,0,0,1,.094,3.021,14.689,14.689,0,0,1-.09,2.515h0Z" transform="translate(-0.875)"/>
</svg>
